<svg width="208" height="39" viewBox="0 0 208 39" fill="none" xmlns="http://www.w3.org/2000/svg">
<path d="M0.68 35V5.8H8.24C10.1333 5.8 11.76 6.16 13.12 6.88C14.5067 7.6 15.5733 8.61333 16.32 9.92C17.0933 11.2267 17.48 12.7733 17.48 14.56V26.2C17.48 27.9867 17.0933 29.5467 16.32 30.88C15.5733 32.1867 14.5067 33.2 13.12 33.92C11.76 34.64 10.1333 35 8.24 35H0.68ZM4.28 31.8H8.24C10 31.8 11.3733 31.3067 12.36 30.32C13.3733 29.3333 13.88 27.96 13.88 26.2V14.56C13.88 12.8267 13.3733 11.4667 12.36 10.48C11.3733 9.49333 10 9 8.24 9H4.28V31.8Z" fill="#931F1D"/>
<path d="M24.6644 35V5.8H33.7044C35.4377 5.8 36.9577 6.16 38.2644 6.88C39.571 7.57333 40.5844 8.54666 41.3044 9.8C42.0244 11.0533 42.3844 12.52 42.3844 14.2C42.3844 16.1733 41.8644 17.8667 40.8244 19.28C39.811 20.6933 38.4244 21.6667 36.6644 22.2L42.7844 35H38.5444L32.9444 22.6H28.2644V35H24.6644ZM28.2644 19.36H33.7044C35.1977 19.36 36.3977 18.8933 37.3044 17.96C38.211 17 38.6644 15.7467 38.6644 14.2C38.6644 12.6267 38.211 11.3733 37.3044 10.44C36.3977 9.50666 35.1977 9.04 33.7044 9.04H28.2644V19.36Z" fill="#931F1D"/>
<path d="M49.1688 35V31.72H55.1287V9.08H49.1688V5.8H64.7688V9.08H58.8088V31.72H64.7688V35H49.1688Z" fill="#931F1D"/>
<path d="M72.5531 35V5.8H77.3531L86.2731 30.8C86.2198 30.1333 86.1531 29.32 86.0731 28.36C86.0198 27.3733 85.9665 26.3467 85.9131 25.28C85.8865 24.1867 85.8731 23.16 85.8731 22.2V5.8H89.3531V35H84.5531L75.6731 10C75.7265 10.64 75.7798 11.4533 75.8331 12.44C75.8865 13.4 75.9265 14.4267 75.9531 15.52C76.0065 16.5867 76.0331 17.6133 76.0331 18.6V35H72.5531Z" fill="#931F1D"/>
<path d="M96.6175 35V5.8H100.217V18.32H104.537L111.018 5.8H114.938L107.698 19.84L115.338 35H111.217L104.418 21.48H100.217V35H96.6175Z" fill="#931F1D"/>
<path d="M129.082 35.4C127.162 35.4 125.509 35.08 124.122 34.44C122.762 33.8 121.709 32.88 120.962 31.68C120.215 30.48 119.829 29.0533 119.802 27.4H123.402C123.402 28.8667 123.895 30.0267 124.882 30.88C125.895 31.7333 127.295 32.16 129.082 32.16C130.762 32.16 132.069 31.7467 133.002 30.92C133.962 30.0933 134.442 28.9467 134.442 27.48C134.442 26.3067 134.122 25.28 133.482 24.4C132.869 23.52 131.975 22.9067 130.802 22.56L126.842 21.32C124.842 20.7067 123.295 19.68 122.202 18.24C121.135 16.8 120.602 15.1067 120.602 13.16C120.602 11.5867 120.949 10.2267 121.642 9.08C122.362 7.90667 123.362 7 124.642 6.36C125.922 5.69333 127.429 5.36 129.162 5.36C131.722 5.36 133.775 6.08 135.322 7.52C136.869 8.93333 137.655 10.8267 137.682 13.2H134.082C134.082 11.76 133.642 10.64 132.762 9.84C131.909 9.01333 130.695 8.6 129.122 8.6C127.575 8.6 126.362 8.97333 125.482 9.72C124.629 10.4667 124.202 11.5067 124.202 12.84C124.202 14.04 124.522 15.08 125.162 15.96C125.802 16.84 126.722 17.4667 127.922 17.84L131.922 19.12C133.869 19.7333 135.375 20.7733 136.442 22.24C137.509 23.7067 138.042 25.4267 138.042 27.4C138.042 29 137.669 30.4 136.922 31.6C136.175 32.8 135.122 33.7333 133.762 34.4C132.429 35.0667 130.869 35.4 129.082 35.4Z" fill="#931F1D"/>
<path d="M145.063 39C144.479 39 144.052 38.8646 143.781 38.5938C143.51 38.3229 143.375 37.9062 143.375 37.3438V1.78125C143.375 1.19792 143.51 0.78125 143.781 0.53125C144.052 0.260417 144.479 0.125 145.063 0.125H156.281C161.49 0.125 165.656 1.66667 168.781 4.75C171.906 7.83333 173.469 12.7604 173.469 19.5312C173.469 26.3438 171.906 31.2917 168.781 34.375C165.656 37.4583 161.49 39 156.281 39H145.063ZM155.906 34.7812C159.656 34.7812 162.677 33.5625 164.969 31.125C167.26 28.6667 168.406 24.8021 168.406 19.5312C168.406 15.9896 167.865 13.0938 166.781 10.8438C165.698 8.57292 164.219 6.92708 162.344 5.90625C160.469 4.86458 158.323 4.34375 155.906 4.34375H148.281V34.7812H155.906Z" fill="black"/>
<path d="M183.688 39C183.104 39 182.677 38.8646 182.406 38.5938C182.135 38.3229 182 37.9062 182 37.3438V1.78125C182 1.19792 182.135 0.78125 182.406 0.53125C182.677 0.260417 183.104 0.125 183.688 0.125H193.625C196.333 0.125 198.615 0.53125 200.469 1.34375C202.323 2.15625 203.719 3.30208 204.656 4.78125C205.594 6.26042 206.063 7.97917 206.063 9.9375C206.063 11.1458 205.781 12.3542 205.219 13.5625C204.656 14.75 203.906 15.7812 202.969 16.6562C202.031 17.5104 201.031 18.0833 199.969 18.375V18.5938C199.969 18.4479 200.688 18.7292 202.125 19.4375C203.563 20.125 204.854 21.1562 206 22.5312C207.167 23.8854 207.75 25.6458 207.75 27.8125C207.75 35.2708 202.917 39 193.25 39H183.688ZM193.375 16.875C194.833 16.875 196.146 16.5938 197.313 16.0312C198.479 15.4479 199.385 14.6667 200.031 13.6875C200.698 12.6875 201.031 11.5833 201.031 10.375C201.031 8.29167 200.406 6.77083 199.156 5.8125C197.906 4.83333 195.906 4.34375 193.156 4.34375H186.906V16.875H193.375ZM195.031 34.7812C197.469 34.7812 199.354 34.1458 200.688 32.875C202.021 31.5833 202.688 29.8229 202.688 27.5938C202.688 25.5312 201.958 23.9375 200.5 22.8125C199.042 21.6667 196.896 21.0938 194.063 21.0938H186.906V34.7812H195.031Z" fill="black"/>
</svg>
